<svg id="Layer_1" data-name="Layer 1" xmlns="http://www.w3.org/2000/svg" viewBox="0 0 363.97 400.52"><title>anonicon</title><path d="M777.76,338.73h54.57l-20.88,53.55c.38.59.48,1,.72,1.09,21.81,11.71,35.16,30.26,42.46,53.38,8.46,26.77,12.34,54.31,10.38,82.31-2.06,29.49-21,49.47-50.38,54.43a124.85,124.85,0,0,1-20.51,1.73q-110.62.18-221.24-.06a110.07,110.07,0,0,1-26.09-3c-27.69-6.91-43.88-26.55-45.06-55.95-1.15-28.78,2.51-57.17,12.69-84.33,8.18-21.81,21.67-39.37,43.43-50.23l-23-52.67h54.85c-.49-2-.78-3.47-1.24-4.91a77.07,77.07,0,0,1-3.78-29.78c.24-3.08-.51-4.27-3.79-5.1q-16.22-4.1-32.16-9.28a32.68,32.68,0,0,1-9.89-5.7c-5.55-4.42-5.68-9.75-.1-14a41.63,41.63,0,0,1,12.5-6.87C562,259.89,573,257.13,584,254.43c3.39-.83,5.33-2,6.55-5.65,6.68-19.64,15.82-38,29.07-54.19,4.55-5.55,10.34-9.3,17.57-9.6a38.44,38.44,0,0,1,12.64,1.82,54.51,54.51,0,0,1,12.59,5.77c14.23,8.85,28.23,8.79,42.37-.13a62.17,62.17,0,0,1,9-4.4c14.37-6.07,25-3.84,35.12,8.14,12.94,15.38,21.12,33.44,27.51,52.29,1.28,3.78,3.26,5.06,6.8,6,11.58,2.95,23.17,6,34.54,9.64,4.26,1.38,8.27,4.21,11.73,7.16,4.07,3.48,4,8.15,0,11.69-3.18,2.79-6.9,5.48-10.85,6.79-10.88,3.62-22,6.41-33,9.76-1.31.4-3.15,2.31-3.1,3.46a92.32,92.32,0,0,1-4.85,34A6.14,6.14,0,0,0,777.76,338.73ZM636.7,307.38c-9.67.55-16.22.78-22.73,1.4-1.67.16-4.47,1.41-4.58,2.4a14.48,14.48,0,0,0,1.39,7.21c1.53,3.38,3.77,6.42,5.51,9.71,2.53,4.78,4.16,10.24,7.52,14.3,3,3.6,7.44,7,11.84,8.12,6,1.54,12.64,1.52,18.9.95,10-.92,16.57-6.81,19.6-16.51.71-2.28,1.52-4.54,2.45-6.74,1.3-3.06,3.6-5.41,7-4.44a15.34,15.34,0,0,1,6.56,4.42c1.31,1.41,1.74,3.73,2.31,5.71,3.17,11,10.7,17,21.75,18,18.26,1.72,27.54-2.54,34.46-18.25,1.22-2.77,2-5.75,3.26-8.48,1.05-2.23,2.86-4.12,3.83-6.37s2-5,1.86-7.51c-.06-1-3.11-2-4.91-2.67a12.2,12.2,0,0,0-3.78-.5c-17-.75-33.93-.72-50.64,2.68-10.06,2-19.84,1.63-29.9,0C656.92,309,645.25,308.28,636.7,307.38ZM650.22,554.3c.73-2.22,1.09-3.1,1.3-4,7.76-33.59,15.54-67.17,23.13-100.79a7.71,7.71,0,0,0-1.54-5.53c-5-6.62-10.63-12.8-15.45-19.55a37.88,37.88,0,0,0-17.34-13.6c-7.61-3-14.93-6.79-23.2-10.62Zm99.7-154.16c-11.43,5.34-22,10.23-32.47,15.23a9,9,0,0,0-2.74,2.6c-6.85,8.44-13.58,17-20.52,25.33a7.65,7.65,0,0,0-1.67,7.41c5.75,24.55,11.32,49.13,17,73.7,2.2,9.55,4.47,19.07,6.71,28.61l.88-.06Z" transform="translate(-501.53 -184.8)" fill="#4e5ee8"/></svg>