<?xml version="1.0" standalone="no"?>
<!DOCTYPE svg PUBLIC "-//W3C//DTD SVG 20010904//EN"
 "http://www.w3.org/TR/2001/REC-SVG-20010904/DTD/svg10.dtd">
<svg version="1.0" xmlns="http://www.w3.org/2000/svg"
 width="401.000000pt" height="258.000000pt" viewBox="0 0 401.000000 258.000000"
 preserveAspectRatio="xMidYMid meet">

<g transform="translate(0.000000,258.000000) scale(0.100000,-0.100000)"
fill="#000000" stroke="none">
<path d="M490 2553 c-171 -29 -331 -151 -409 -313 -78 -160 -78 -313 -1 -478
l41 -87 767 -768 c422 -422 789 -782 815 -799 120 -77 286 -106 430 -74 166
37 124 1 970 845 433 432 784 790 805 821 90 135 113 319 59 478 -32 92 -87
173 -163 242 -68 60 -137 96 -230 120 -136 35 -243 23 -389 -42 -67 -30 -96
-57 -622 -582 l-553 -550 -552 550 c-527 525 -556 552 -623 582 -122 55 -237
73 -345 55z"/>
</g>
</svg>
