<?xml version="1.0" encoding="UTF-8"?>
<svg xmlns="http://www.w3.org/2000/svg" xmlns:xlink="http://www.w3.org/1999/xlink" width="100pt" height="100pt" viewBox="0 0 100 100" version="1.1">
<g id="surface22279067">
<path style=" stroke:none;fill-rule:nonzero;fill:rgb(80%,80%,80%);fill-opacity:1;" d="M 50 4 C 24.636719 4 4 24.636719 4 50 C 4 75.363281 24.636719 96 50 96 C 75.363281 96 96 75.363281 96 50 C 96 24.636719 75.363281 4 50 4 Z M 67.421875 64.578125 C 68.199219 65.359375 68.199219 66.640625 67.421875 67.421875 C 67.019531 67.800781 66.519531 68 66 68 C 65.480469 68 64.980469 67.800781 64.578125 67.421875 L 50 52.839844 L 35.421875 67.421875 C 35.019531 67.800781 34.519531 68 34 68 C 33.480469 68 32.980469 67.800781 32.578125 67.421875 C 31.800781 66.640625 31.800781 65.359375 32.578125 64.578125 L 47.160156 50 L 32.578125 35.421875 C 31.800781 34.640625 31.800781 33.359375 32.578125 32.578125 C 33.359375 31.800781 34.640625 31.800781 35.421875 32.578125 L 50 47.160156 L 64.578125 32.578125 C 65.359375 31.800781 66.640625 31.800781 67.421875 32.578125 C 68.199219 33.359375 68.199219 34.640625 67.421875 35.421875 L 52.839844 50 Z M 67.421875 64.578125 "/>
</g>
</svg>
