<?xml version="1.0" standalone="no"?>
<!DOCTYPE svg PUBLIC "-//W3C//DTD SVG 20010904//EN"
 "http://www.w3.org/TR/2001/REC-SVG-20010904/DTD/svg10.dtd">
<svg version="1.0" xmlns="http://www.w3.org/2000/svg"
 width="512.000000pt" height="512.000000pt" viewBox="0 0 512.000000 512.000000"
 preserveAspectRatio="xMidYMid meet">
<metadata>
Created by potrace 1.15, written by Peter Selinger 2001-2017
</metadata>
<g transform="translate(0.000000,512.000000) scale(0.100000,-0.100000)"
fill="#000000" stroke="none">
<path d="M2136 4987 c-22 -16 -23 -27 -27 -304 -3 -176 -2 -205 12 -219 14
-14 50 -16 283 -15 146 1 274 5 284 8 52 18 52 20 52 268 0 229 0 232 -23 253
-23 21 -30 22 -293 22 -209 0 -274 -3 -288 -13z m464 -257 l0 -130 -176 0
-177 0 6 83 c4 45 7 103 7 130 l0 47 170 0 170 0 0 -130z"/>
<path d="M2904 4850 c-12 -4 -30 -20 -41 -33 -18 -24 -20 -48 -26 -334 -4
-169 -10 -371 -13 -448 -6 -136 -5 -141 18 -168 25 -31 79 -47 118 -36 14 4
230 7 480 8 509 1 507 1 543 71 16 32 17 70 15 452 l-3 418 -38 37 -37 38
-498 2 c-273 1 -507 -2 -518 -7z m856 -500 l0 -270 -350 0 -349 0 5 218 c3
119 7 241 10 270 l5 52 340 0 339 0 0 -270z"/>
<path d="M1572 4782 c-16 -16 -18 -40 -21 -196 -2 -126 1 -181 9 -192 17 -19
392 -20 430 -1 l25 13 3 178 c2 156 0 181 -14 197 -16 17 -35 19 -216 19 -177
0 -200 -2 -216 -18z m338 -192 l0 -90 -120 0 -120 0 0 90 0 90 120 0 120 0 0
-90z"/>
<path d="M1603 4310 c-22 -13 -35 -31 -43 -60 -6 -22 -8 -45 -5 -51 4 -5 1
-194 -5 -418 -9 -308 -10 -413 -1 -429 19 -35 67 -55 115 -47 22 4 254 10 513
14 l473 6 29 27 c17 16 31 42 35 65 10 64 7 775 -4 815 -6 20 -26 50 -46 67
l-35 31 -497 0 c-475 0 -498 -1 -529 -20z m877 -485 l0 -275 -352 0 -351 0 6
167 c4 91 7 215 7 275 l0 108 345 0 345 0 0 -275z"/>
<path d="M4090 4143 c-36 -13 -40 -34 -40 -213 0 -124 4 -180 12 -188 9 -9 70
-12 213 -12 165 0 204 3 223 16 21 15 22 21 22 194 0 173 -1 179 -22 194 -19
13 -55 16 -208 15 -102 0 -192 -3 -200 -6z m320 -203 l0 -90 -120 0 -120 0 0
90 0 90 120 0 120 0 0 -90z"/>
<path d="M884 3950 c-12 -4 -24 -17 -28 -27 -4 -10 -10 -124 -13 -253 -5 -222
-5 -236 13 -251 17 -13 55 -14 302 -10 266 6 285 7 298 25 11 16 14 67 14 252
l0 233 -26 20 c-25 20 -38 21 -283 20 -141 0 -265 -4 -277 -9z m446 -270 l0
-130 -176 0 -176 0 6 23 c3 12 6 70 6 130 l0 107 170 0 170 0 0 -130z"/>
<path d="M2814 3746 c-18 -13 -19 -32 -25 -253 -4 -145 -3 -245 3 -256 5 -10
19 -21 31 -25 12 -4 143 -5 290 -2 268 5 269 5 288 29 17 21 19 42 19 246 0
210 -1 224 -21 249 l-20 26 -273 0 c-219 0 -276 -3 -292 -14z m466 -256 l0
-130 -175 0 -175 0 0 38 c0 22 3 80 6 130 l7 92 168 0 169 0 0 -130z"/>
<path d="M3564 3670 c-12 -4 -30 -20 -41 -33 -18 -24 -20 -48 -26 -339 -4
-172 -10 -374 -13 -448 l-7 -136 31 -30 30 -31 271 5 271 5 -2 -328 -3 -328
-320 -79 c-176 -43 -323 -78 -327 -78 -5 0 -8 47 -8 105 l0 105 163 0 c218 0
201 -21 205 253 2 116 1 221 -3 234 -3 12 -15 32 -27 43 -21 19 -34 20 -288
20 -247 0 -268 -1 -287 -19 -18 -17 -20 -35 -27 -256 -6 -205 -5 -240 9 -261
12 -19 15 -62 15 -244 l0 -220 -260 0 -260 0 0 245 0 245 156 0 c129 0 161 3
185 17 58 35 59 42 59 488 0 441 0 440 -56 484 -26 21 -35 21 -531 21 -327 0
-511 -4 -524 -10 -42 -23 -49 -58 -49 -252 0 -101 -5 -297 -11 -436 -11 -245
-11 -255 8 -280 11 -16 39 -33 66 -42 l47 -15 0 -300 0 -300 25 -37 c34 -50
69 -58 243 -58 l142 0 0 -72 -1 -73 -91 -70 c-51 -38 -101 -73 -111 -77 -20
-8 -116 28 -394 150 l-153 67 0 137 0 138 30 0 c17 0 39 9 50 20 19 19 20 33
20 240 0 233 -5 260 -47 279 -30 14 -501 15 -537 1 -14 -5 -29 -17 -34 -27 -6
-10 -11 -125 -13 -256 -4 -222 -3 -240 14 -252 14 -10 49 -12 153 -8 l134 6 0
-194 c0 -226 5 -240 86 -279 82 -38 373 -164 476 -206 l97 -39 3 -362 3 -361
24 -26 c49 -52 133 -52 182 0 l24 26 3 361 3 362 100 70 c55 38 119 79 142 90
66 31 77 64 77 223 l0 132 330 0 c352 0 361 1 405 50 14 15 21 41 25 97 l5 77
230 57 c127 31 309 76 406 99 161 38 179 44 211 76 20 18 38 48 42 65 3 17 6
195 6 395 l0 364 118 0 c136 0 176 14 205 70 16 32 17 70 15 452 l-3 418 -38
37 -37 38 -498 2 c-273 1 -507 -2 -518 -7z m856 -500 l0 -270 -350 0 -349 0 5
208 c3 114 7 235 10 270 l6 62 339 0 339 0 0 -270z m-1600 -560 l0 -270 -349
0 -349 0 4 178 c3 97 7 219 10 270 l6 92 339 0 339 0 0 -270z m820 -275 l0
-135 -170 0 -170 0 0 113 c0 172 -17 157 176 157 l164 0 0 -135z m-1220 -475
l0 -240 -90 0 -90 0 0 240 0 240 90 0 90 0 0 -240z m-790 -8 l0 -128 -175 -2
-175 -3 0 48 c0 26 3 85 7 131 l6 82 168 0 169 0 0 -128z"/>
<path d="M701 3216 c-45 -25 -50 -49 -51 -231 0 -93 -5 -288 -11 -432 -9 -205
-9 -269 1 -292 16 -40 70 -65 119 -56 20 4 247 10 505 12 451 3 470 4 497 24
16 11 33 36 39 57 8 25 10 172 8 442 -3 387 -4 406 -23 432 -45 60 -28 58
-567 58 -390 -1 -498 -3 -517 -14z m869 -491 l0 -275 -350 0 -349 0 5 203 c2
111 7 235 10 275 l6 72 339 0 339 0 0 -275z"/>
</g>
</svg>
