<?xml version="1.0" standalone="no"?>
<!DOCTYPE svg PUBLIC "-//W3C//DTD SVG 20010904//EN"
 "http://www.w3.org/TR/2001/REC-SVG-20010904/DTD/svg10.dtd">
<svg version="1.0" xmlns="http://www.w3.org/2000/svg"
 width="522.000000pt" height="385.000000pt" viewBox="0 0 522.000000 385.000000"
 preserveAspectRatio="xMidYMid meet">

<g transform="translate(0.000000,385.000000) scale(0.100000,-0.100000)"
fill="#000000" stroke="none">
<path d="M2103 3820 c-132 -28 -251 -163 -307 -351 -52 -171 -50 -263 9 -387
28 -59 54 -93 137 -176 86 -86 118 -110 193 -148 147 -74 237 -94 344 -77 143
23 259 89 391 224 101 103 105 105 227 98 97 -6 104 -5 165 24 34 17 101 60
147 97 103 81 137 92 240 77 l76 -12 71 37 c56 29 80 36 112 32 23 -2 38 -1
34 3 -89 80 -134 92 -232 63 -63 -19 -115 -14 -180 15 -73 33 -120 28 -245
-31 -89 -41 -120 -51 -161 -50 -100 1 -174 54 -321 231 -57 69 -128 146 -156
169 -61 52 -207 125 -292 147 -74 20 -196 27 -252 15z"/>
<path d="M4222 3709 c-74 -38 -126 -131 -138 -248 -9 -78 20 -143 94 -214 78
-74 159 -112 237 -112 84 1 142 30 226 115 l70 70 48 -6 c53 -7 112 17 185 75
33 26 47 31 95 31 38 1 71 8 104 24 l47 23 -26 18 c-24 15 -33 16 -78 5 -37
-8 -58 -9 -79 -1 -46 18 -104 13 -157 -14 -27 -14 -66 -25 -87 -25 -35 0 -45
8 -138 104 -80 84 -113 111 -166 136 -91 42 -178 49 -237 19z"/>
<path d="M5000 3021 c-14 -3 -37 -14 -53 -25 -27 -18 -28 -18 -76 3 -93 40
-151 20 -151 -50 0 -30 6 -46 26 -64 53 -49 107 -41 156 25 12 17 27 30 34 30
7 0 20 10 28 21 8 12 32 32 53 45 37 23 32 28 -17 15z"/>
<path d="M3610 2947 c-45 -23 -70 -73 -70 -141 0 -73 21 -114 78 -150 115 -72
214 -54 284 53 27 40 41 52 75 60 29 8 50 22 73 51 20 25 45 44 69 51 20 6 48
20 62 31 l24 20 -35 -7 c-19 -4 -57 -10 -85 -14 -29 -4 -67 -18 -89 -34 -49
-33 -72 -29 -146 26 -30 23 -70 46 -90 53 -45 17 -118 17 -150 1z"/>
<path d="M4355 2576 c-27 -13 -93 -55 -147 -95 -142 -105 -139 -104 -378 -111
-275 -7 -266 -3 -500 -235 -218 -216 -247 -240 -334 -267 -58 -17 -85 -20
-170 -15 -181 9 -316 66 -645 271 -270 168 -370 220 -509 266 -436 142 -953
110 -1240 -77 -88 -58 -211 -187 -260 -274 -49 -87 -93 -210 -119 -331 -25
-118 -25 -459 0 -611 46 -271 120 -422 297 -597 233 -232 612 -410 994 -466
152 -22 367 -15 491 16 196 49 382 157 534 309 167 168 258 312 401 638 104
239 127 262 296 288 54 8 128 24 164 35 170 50 329 210 502 504 121 205 214
277 403 311 188 35 240 63 332 178 98 123 154 160 240 161 l52 1 -52 33 c-150
97 -250 116 -352 68z m-3682 -760 c82 -34 129 -127 106 -212 -14 -48 -85 -120
-125 -126 -58 -8 -111 11 -133 46 -38 60 -22 236 25 283 27 27 77 31 127 9z
m661 -79 c85 -48 103 -137 51 -246 -27 -56 -42 -74 -78 -95 -72 -43 -151 -30
-188 31 -18 29 -21 45 -16 93 9 107 101 240 165 240 15 0 45 -10 66 -23z
m-910 -567 c217 -137 407 -177 716 -151 156 13 203 24 247 57 l32 24 -9 -29
c-40 -139 -160 -234 -345 -272 -113 -23 -147 -23 -263 0 -188 39 -365 160
-427 292 -22 48 -34 119 -20 119 3 0 34 -18 69 -40z"/>
<path d="M4962 2252 c-15 -16 -40 -45 -55 -66 -18 -22 -40 -39 -58 -43 -45 -9
-83 -51 -107 -118 -50 -138 -68 -149 -232 -138 -190 12 -258 9 -332 -16 -167
-56 -253 -177 -226 -320 14 -80 72 -183 131 -236 69 -63 128 -79 271 -73 99 4
118 8 177 36 77 37 121 82 158 162 21 46 26 73 29 160 4 139 6 146 53 177 52
34 77 84 94 190 14 84 15 86 74 148 41 42 61 71 61 88 0 13 12 36 26 51 l27
26 -32 0 c-23 0 -41 -9 -59 -28z"/>
</g>
</svg>
