<?xml version="1.0" standalone="no"?>
<!DOCTYPE svg PUBLIC "-//W3C//DTD SVG 20010904//EN"
 "http://www.w3.org/TR/2001/REC-SVG-20010904/DTD/svg10.dtd">
<svg version="1.0" xmlns="http://www.w3.org/2000/svg"
 width="544.000000pt" height="179.000000pt" viewBox="0 0 544.000000 179.000000"
 preserveAspectRatio="xMidYMid meet">

<g transform="translate(0.000000,179.000000) scale(0.100000,-0.100000)"
fill="#000000" stroke="none">
<path d="M856 1738 c-20 -29 -20 -100 0 -139 18 -37 31 -34 56 12 21 38 19 86
-7 125 -19 30 -30 30 -49 2z"/>
<path d="M685 1590 c-18 -34 -19 -77 -4 -117 12 -33 48 -73 64 -73 30 0 47
108 24 153 -14 28 -50 67 -60 67 -5 0 -15 -13 -24 -30z"/>
<path d="M1052 1598 c-44 -48 -54 -119 -24 -176 l18 -33 26 28 c37 40 48 66
48 115 0 40 -21 88 -39 88 -4 0 -17 -10 -29 -22z"/>
<path d="M460 1549 c0 -35 6 -47 39 -80 48 -49 81 -52 81 -9 0 57 -38 105 -97
124 -21 7 -23 4 -23 -35z"/>
<path d="M1282 1570 c-33 -21 -72 -74 -72 -100 0 -8 5 -22 10 -30 8 -13 14
-13 44 4 53 28 71 64 67 129 -1 22 -9 21 -49 -3z"/>
<path d="M862 1436 c-17 -19 -33 -48 -37 -64 -8 -38 11 -112 29 -112 23 0 73
65 80 104 8 43 -9 106 -29 106 -7 0 -26 -15 -43 -34z"/>
<path d="M363 1386 c11 -71 75 -126 146 -126 29 0 31 2 25 28 -17 73 -66 120
-134 129 l-43 6 6 -37z"/>
<path d="M1336 1397 c-41 -23 -76 -76 -76 -114 0 -19 5 -23 33 -23 62 0 121
53 137 125 8 34 7 35 -24 35 -17 0 -49 -10 -70 -23z"/>
<path d="M168 1373 c-22 -5 -22 -16 -3 -52 26 -51 145 -86 145 -42 0 27 -39
71 -76 87 -34 14 -37 15 -66 7z"/>
<path d="M1552 1360 c-41 -18 -78 -72 -66 -92 9 -15 69 -8 101 12 28 17 70 76
61 85 -14 14 -59 12 -96 -5z"/>
<path d="M605 1360 c-10 -16 13 -74 38 -98 20 -19 86 -52 103 -52 11 0 -4 71
-21 96 -24 37 -107 74 -120 54z"/>
<path d="M1073 1330 c-68 -30 -114 -130 -61 -130 64 0 148 73 148 128 0 28
-29 29 -87 2z"/>
<path d="M3790 875 l0 -395 45 0 c41 0 45 2 45 25 0 26 14 33 26 14 12 -20 88
-49 128 -49 65 0 114 20 156 66 54 59 73 129 68 249 -7 156 -68 246 -180 261
-61 9 -108 -1 -152 -31 l-36 -24 0 139 0 140 -50 0 -50 0 0 -395z m313 55 c41
-36 57 -86 57 -176 -1 -124 -51 -194 -140 -194 -47 0 -85 20 -117 60 -19 23
-17 259 2 284 27 36 69 56 117 56 38 0 54 -6 81 -30z"/>
<path d="M4950 875 l0 -395 45 0 c41 0 45 2 45 25 0 26 14 33 26 14 12 -20 88
-49 128 -49 65 0 114 20 156 66 54 59 73 129 68 249 -7 156 -68 246 -180 261
-61 9 -108 -1 -152 -31 l-36 -24 0 139 0 140 -50 0 -50 0 0 -395z m313 55 c41
-36 57 -86 57 -176 -1 -124 -51 -194 -140 -194 -47 0 -85 20 -117 60 -19 23
-17 259 2 284 27 36 69 56 117 56 38 0 54 -6 81 -30z"/>
<path d="M1980 855 l0 -377 178 4 c157 3 182 6 217 25 75 40 115 105 115 187
0 70 -25 121 -75 154 l-44 29 30 22 c46 35 69 79 69 136 -1 75 -29 128 -87
162 -47 27 -51 28 -225 31 l-178 4 0 -377z m340 267 c36 -27 53 -67 45 -109
-13 -73 -81 -106 -208 -101 l-72 3 -3 104 c-1 58 0 111 3 119 8 23 200 9 235
-16z m17 -318 c15 -11 35 -40 43 -62 13 -37 13 -47 0 -84 -10 -27 -27 -50 -49
-65 -30 -20 -46 -23 -142 -23 l-109 0 0 131 0 131 114 -3 c97 -4 119 -7 143
-25z"/>
<path d="M298 1183 c-58 -15 52 -124 124 -123 12 1 36 6 51 13 l28 12 -26 35
c-42 58 -109 81 -177 63z"/>
<path d="M1385 1176 c-31 -13 -85 -69 -85 -87 0 -12 44 -29 77 -29 37 0 105
43 126 79 l18 31 -26 10 c-35 13 -74 12 -110 -4z"/>
<path d="M560 1154 c0 -52 79 -114 144 -114 46 0 48 25 6 73 -42 48 -150 77
-150 41z"/>
<path d="M840 1130 c-14 -53 1 -110 41 -149 37 -38 43 -38 57 -6 26 56 7 136
-42 177 -32 27 -44 22 -56 -22z"/>
<path d="M1147 1156 c-46 -17 -64 -32 -83 -67 -21 -41 -18 -49 22 -49 49 0
103 27 125 64 39 63 17 80 -64 52z"/>
<path d="M38 1139 c-16 -9 -16 -12 -3 -33 29 -44 118 -62 159 -31 16 12 17 17
6 30 -33 40 -121 58 -162 34z"/>
<path d="M1630 1134 c-14 -10 -31 -24 -38 -33 -28 -34 72 -55 128 -26 37 19
54 47 38 63 -18 18 -100 15 -128 -4z"/>
<path d="M2747 1035 c-76 -28 -127 -82 -127 -135 0 -17 6 -20 50 -20 42 0 50
3 50 18 0 46 83 80 150 62 47 -13 69 -42 73 -96 l2 -39 -100 -6 c-146 -9 -210
-47 -235 -140 -41 -151 128 -259 283 -181 l56 28 6 -23 c5 -21 11 -23 61 -23
50 0 55 2 48 18 -4 9 -10 107 -14 217 -6 218 -15 256 -69 294 -56 40 -162 52
-234 26z m203 -335 c0 -61 -19 -94 -71 -121 -96 -49 -199 11 -168 99 17 48 69
69 177 71 l62 1 0 -50z"/>
<path d="M3337 1037 c-122 -40 -191 -180 -166 -335 13 -82 38 -131 89 -175 50
-43 113 -62 184 -54 142 14 226 119 226 282 0 131 -46 222 -133 267 -50 25
-147 33 -200 15z m157 -95 c49 -28 71 -84 71 -182 0 -137 -48 -204 -147 -204
-94 0 -148 75 -148 204 1 168 103 250 224 182z"/>
<path d="M4506 1035 c-70 -25 -118 -72 -130 -127 -6 -28 -6 -28 41 -28 43 1
50 4 68 33 38 61 138 71 190 20 19 -20 25 -36 25 -69 l0 -44 -70 0 c-98 0
-160 -16 -205 -52 -65 -54 -82 -130 -45 -202 47 -94 167 -123 273 -67 55 29
56 29 59 8 3 -19 10 -22 57 -25 l54 -3 -7 28 c-4 15 -9 114 -12 218 -3 105
-10 202 -16 218 -33 86 -171 132 -282 92z m194 -343 c0 -64 -9 -81 -60 -111
-48 -29 -107 -27 -145 3 -24 19 -30 31 -30 65 0 24 7 47 16 57 26 25 90 43
157 44 l62 0 0 -58z"/>
<path d="M223 990 c-41 -25 -35 -42 24 -71 51 -24 103 -22 147 6 26 17 26 18
9 37 -45 50 -124 62 -180 28z"/>
<path d="M1435 997 c-16 -8 -38 -23 -48 -34 -18 -20 -17 -21 26 -42 24 -11 54
-21 68 -21 30 0 100 31 117 52 30 37 -101 73 -163 45z"/>
<path d="M522 971 c-10 -6 -11 -13 -1 -33 24 -54 111 -94 186 -85 24 2 47 7
50 10 13 14 -42 80 -81 98 -42 19 -131 25 -154 10z"/>
<path d="M1125 966 c-34 -15 -85 -70 -85 -91 0 -18 52 -28 104 -21 54 8 101
38 126 78 18 31 19 33 2 40 -29 11 -115 8 -147 -6z"/>
<path d="M132 870 c-45 -10 -86 -49 -71 -66 14 -17 72 -28 103 -20 28 7 84 51
75 60 -17 18 -77 32 -107 26z"/>
<path d="M855 845 c-30 -29 -31 -45 -4 -79 25 -31 61 -34 89 -6 28 28 25 64
-6 89 -34 27 -50 26 -79 -4z"/>
<path d="M1572 854 c-19 -13 -21 -18 -10 -31 16 -20 70 -43 99 -43 11 0 36 7
55 16 28 14 32 19 22 31 -34 42 -124 57 -166 27z"/>
<path d="M402 839 c-19 -4 -47 -19 -63 -35 l-29 -28 27 -17 c41 -27 95 -33
139 -14 40 16 74 42 74 56 0 25 -96 49 -148 38z"/>
<path d="M1308 840 c-15 -4 -36 -15 -49 -23 l-22 -16 28 -25 c55 -51 141 -55
199 -11 20 15 20 15 0 30 -59 47 -104 60 -156 45z"/>
<path d="M645 769 c-4 -6 18 -33 48 -60 30 -27 66 -70 79 -97 21 -44 23 -59
23 -217 0 -207 -14 -265 -82 -332 l-42 -43 44 0 c49 0 146 33 165 55 11 13 16
12 39 -3 45 -32 109 -52 163 -52 l51 0 -34 23 c-82 54 -124 236 -102 446 11
116 40 175 110 226 43 31 57 65 26 65 -41 -1 -182 -85 -222 -133 -12 -15 -18
-13 -61 26 -50 45 -156 107 -183 107 -9 0 -19 -5 -22 -11z"/>
<path d="M482 655 c-17 -14 -35 -39 -41 -55 l-10 -30 46 0 c39 0 50 5 84 39
53 53 52 71 -5 71 -33 0 -52 -7 -74 -25z"/>
<path d="M1190 671 c0 -17 47 -76 70 -88 14 -7 42 -13 63 -13 35 0 38 2 31 23
-10 33 -36 64 -62 76 -27 13 -102 15 -102 2z"/>
</g>
</svg>
