<?xml version="1.0" standalone="no"?>
<!DOCTYPE svg PUBLIC "-//W3C//DTD SVG 20010904//EN"
 "http://www.w3.org/TR/2001/REC-SVG-20010904/DTD/svg10.dtd">
<svg version="1.0" xmlns="http://www.w3.org/2000/svg"
 width="100.000000pt" height="100.000000pt" viewBox="0 0 100.000000 100.000000"
 preserveAspectRatio="xMidYMid meet">

<g transform="translate(0.000000,100.000000) scale(0.100000,-0.100000)"
fill="#000000" stroke="none">
<path d="M393 930 c-105 -22 -190 -100 -223 -208 -11 -35 -20 -72 -20 -82 0
-10 -20 -53 -45 -96 -25 -44 -45 -87 -45 -96 0 -18 39 -53 70 -63 13 -4 20
-23 29 -81 6 -41 18 -88 26 -104 19 -37 63 -60 115 -60 l40 0 0 -40 c0 -34 3
-40 20 -40 19 0 21 5 18 58 l-3 57 -60 5 c-33 3 -66 9 -74 14 -21 14 -38 65
-46 139 -7 67 -8 68 -49 89 -22 11 -43 22 -45 24 -2 2 17 40 43 85 25 45 46
90 46 99 0 37 38 139 65 174 40 53 116 86 216 94 65 5 84 10 84 22 0 18 -94
24 -162 10z"/>
<path d="M677 930 c-75 -24 -137 -108 -137 -186 0 -50 29 -111 69 -148 30 -29
31 -33 31 -113 0 -73 2 -84 21 -93 11 -7 29 -20 40 -31 10 -10 28 -19 39 -19
11 0 29 9 39 19 11 11 29 24 40 31 19 9 21 20 21 91 0 80 0 81 40 126 47 54
64 100 57 158 -10 93 -84 163 -178 170 -30 3 -67 0 -82 -5z m151 -57 c39 -29
62 -64 68 -105 9 -54 -1 -82 -51 -138 -37 -42 -45 -58 -45 -90 0 -33 -3 -40
-20 -40 -18 0 -20 7 -20 87 0 84 1 88 32 120 25 26 29 36 20 45 -9 9 -19 5
-42 -17 l-30 -29 -30 29 c-23 22 -33 26 -42 17 -9 -9 -5 -19 20 -45 31 -32 32
-36 32 -120 0 -80 -2 -87 -20 -87 -16 0 -20 7 -20 34 0 25 -11 47 -45 88 -25
30 -48 69 -51 86 -14 71 25 149 91 178 40 19 120 12 153 -13z m-28 -433 c0
-18 -7 -20 -60 -20 -53 0 -60 2 -60 20 0 18 7 20 60 20 53 0 60 -2 60 -20z"/>
<path d="M711 263 c-6 -21 -11 -75 -11 -120 0 -76 2 -83 20 -83 18 0 20 7 20
74 0 40 3 94 6 120 6 38 4 46 -9 46 -10 0 -20 -14 -26 -37z"/>
</g>
</svg>
