<svg id="Layer_1" data-name="Layer 1" xmlns="http://www.w3.org/2000/svg" viewBox="0 0 48.81 47.71"><title>event-active-icon</title><path d="M13.45,8.24c0,1.89,0,3.68,0,5.48.07,2.84,2,4.8,4.53,4.78s4.39-2,4.42-4.85c0-1.79,0-3.58,0-5.5h9.75c0,1.86,0,3.65,0,5.43,0,3,1.93,5,4.57,4.92s4.36-2,4.39-4.89c0-1.79,0-3.57,0-5.32,4.13-.88,7.66,1.59,7.74,5.69.16,8.87.14,17.75,0,26.63-.06,3.77-2.79,6-6.88,6-8.46,0-16.91,0-25.37,0-1.68,0-3.36,0-5,0-3.91-.15-6.36-2.6-6.39-6.54q-.07-12.68,0-25.37C5.24,10,8.51,7.45,13.45,8.24ZM7.15,19.43c0,.7-.08,1.23-.08,1.76q0,9.09,0,18.18c0,3.86,1.49,5.36,5.31,5.37q14.67,0,29.33,0c3.94,0,5.38-1.47,5.39-5.48q0-9,0-18c0-.58,0-1.17,0-1.84Z" transform="translate(-5.19 -2.29)" fill="#b8b8b8"/><path d="M20.65,9.58c0,1.49,0,3,0,4.48a2.63,2.63,0,0,1-2.56,2.7,2.66,2.66,0,0,1-2.82-2.64q-.12-4.56,0-9.13a2.69,2.69,0,1,1,5.38.12C20.69,6.59,20.65,8.08,20.65,9.58Z" transform="translate(-5.19 -2.29)" fill="#b8b8b8"/><path d="M39.37,9.49c0,1.49,0,3,0,4.48A2.7,2.7,0,1,1,34,14q-.08-4.48,0-9a2.7,2.7,0,1,1,5.4.12C39.41,6.63,39.37,8.06,39.37,9.49Z" transform="translate(-5.19 -2.29)" fill="#b8b8b8"/><circle cx="38.31" cy="37.21" r="10.5" fill="#72d393"/></svg>