<?xml version="1.0" standalone="no"?>
<!DOCTYPE svg PUBLIC "-//W3C//DTD SVG 20010904//EN"
 "http://www.w3.org/TR/2001/REC-SVG-20010904/DTD/svg10.dtd">
<svg version="1.0" xmlns="http://www.w3.org/2000/svg"
 width="100.000000pt" height="100.000000pt" viewBox="0 0 100.000000 100.000000"
 preserveAspectRatio="xMidYMid meet">

<g transform="translate(0.000000,100.000000) scale(0.100000,-0.100000)"
fill="#000000" stroke="none">
<path d="M0 820 c0 -20 4 -20 268 -18 229 3 267 5 267 18 0 13 -38 15 -267 18
-264 2 -268 2 -268 -18z"/>
<path d="M787 834 c-4 -4 -7 -143 -7 -308 l0 -301 -80 80 c-63 63 -82 77 -92
67 -10 -10 9 -34 90 -115 l102 -102 102 102 c81 81 100 105 90 115 -10 10 -29
-4 -92 -67 l-80 -79 -2 304 c-3 289 -7 328 -31 304z"/>
<path d="M0 660 c0 -20 4 -20 198 -18 167 3 197 5 197 18 0 13 -30 15 -197 18
-194 2 -198 2 -198 -18z"/>
<path d="M5 509 c-15 -24 17 -29 161 -27 125 3 149 5 149 18 0 13 -25 15 -152
18 -103 2 -154 -1 -158 -9z"/>
<path d="M5 350 c-15 -24 12 -30 121 -30 107 0 114 1 114 20 0 19 -7 20 -114
20 -66 0 -117 -4 -121 -10z"/>
<path d="M5 190 c-14 -22 12 -31 81 -28 53 2 69 6 69 18 0 12 -16 16 -72 18
-45 2 -74 -1 -78 -8z"/>
</g>
</svg>
