<?xml version="1.0" standalone="no"?>
<!DOCTYPE svg PUBLIC "-//W3C//DTD SVG 20010904//EN"
 "http://www.w3.org/TR/2001/REC-SVG-20010904/DTD/svg10.dtd">
<svg version="1.0" xmlns="http://www.w3.org/2000/svg"
 width="1276.000000pt" height="1021.000000pt" viewBox="0 0 1276.000000 1021.000000"
 preserveAspectRatio="xMidYMid meet">
<metadata>
Created by potrace 1.15, written by Peter Selinger 2001-2017
</metadata>
<g transform="translate(0.000000,1021.000000) scale(0.100000,-0.100000)"
fill="#000000" stroke="none">
<path d="M4487 8039 c-315 -46 -604 -271 -726 -563 -16 -39 -138 -463 -271
-941 -132 -479 -245 -885 -251 -902 -10 -32 -13 -33 -62 -33 -160 -1 -351 -97
-458 -232 -23 -29 -57 -85 -76 -123 -63 -133 -64 -148 -61 -839 l3 -621 27
-73 c69 -191 215 -336 404 -402 68 -24 78 -25 487 -30 l418 -5 25 -73 c171
-508 695 -785 1214 -641 208 57 425 213 549 393 43 62 116 218 132 279 l11 47
1518 0 1519 0 16 -57 c24 -81 76 -192 129 -271 54 -82 190 -216 270 -267 324
-207 733 -215 1060 -21 204 122 365 323 436 549 l22 67 537 0 c600 0 613 1
759 72 103 51 218 169 270 278 65 138 67 154 67 545 0 387 -6 441 -67 613 -64
182 -144 311 -281 451 -135 139 -288 236 -471 300 -156 55 -218 61 -640 61
l-381 1 -349 502 c-973 1397 -1112 1593 -1181 1663 -119 120 -276 211 -446
256 l-84 23 -2005 1 c-1103 1 -2031 -2 -2063 -7z m1993 -1444 l0 -995 -1385 0
c-1047 0 -1385 3 -1385 12 0 20 439 1606 460 1661 55 143 185 260 338 302 37
10 256 13 1010 14 l962 1 0 -995z m2063 980 c81 -21 147 -57 206 -112 42 -40
491 -683 1269 -1815 l33 -48 -1561 0 -1560 0 0 995 0 995 778 0 c657 0 787 -2
835 -15z m2912 -2444 c257 -87 433 -262 516 -516 21 -66 23 -89 27 -394 4
-366 2 -382 -68 -444 -61 -56 -87 -58 -633 -55 l-489 3 -23 70 c-99 305 -327
542 -616 640 -522 178 -1090 -96 -1265 -609 l-29 -86 -1511 0 -1510 0 -18 58
c-102 326 -372 582 -697 662 -110 27 -282 36 -390 21 -376 -56 -672 -301 -796
-661 l-33 -95 -351 -3 c-214 -1 -366 2 -388 8 -57 15 -103 51 -131 100 l-25
45 -3 535 c-2 379 0 550 8 588 14 63 57 117 115 143 39 18 189 19 4140 16
l4100 -2 70 -24z m-6434 -1117 c95 -28 171 -74 239 -143 212 -214 212 -532 1
-741 -115 -114 -248 -166 -401 -157 -209 12 -395 149 -471 347 -31 78 -38 235
-14 316 52 180 194 325 370 375 77 23 205 24 276 3z m4964 1 c287 -75 464
-383 378 -660 -70 -227 -279 -385 -508 -385 -247 0 -468 182 -521 429 -17 84
-17 119 1 206 41 193 197 358 386 409 72 19 191 20 264 1z"/>
<path d="M1441 6430 c-54 -13 -112 -61 -140 -115 -65 -124 2 -281 135 -314 56
-14 1284 -15 1333 -1 49 14 97 49 128 94 22 30 28 53 31 106 5 77 -9 113 -66
173 -65 68 -59 67 -761 66 -344 -1 -641 -5 -660 -9z"/>
<path d="M399 5373 c-78 -40 -112 -93 -117 -182 -3 -50 0 -77 13 -102 24 -47
63 -87 107 -110 37 -19 66 -19 931 -17 l893 3 42 28 c69 45 96 97 100 186 2
64 -1 82 -20 116 -26 45 -73 80 -127 95 -23 6 -353 10 -902 10 l-865 0 -55
-27z"/>
<path d="M975 4346 c-171 -74 -180 -312 -16 -398 l53 -28 567 0 c528 0 569 2
606 19 83 38 134 117 135 209 0 91 -40 158 -115 193 -37 17 -77 19 -620 18
-456 0 -586 -3 -610 -13z"/>
</g>
</svg>
