<?xml version="1.0" standalone="no"?>
<!DOCTYPE svg PUBLIC "-//W3C//DTD SVG 20010904//EN"
 "http://www.w3.org/TR/2001/REC-SVG-20010904/DTD/svg10.dtd">
<svg version="1.0" xmlns="http://www.w3.org/2000/svg"
 width="100.000000pt" height="100.000000pt" viewBox="0 0 100.000000 100.000000"
 preserveAspectRatio="xMidYMid meet">

<g transform="translate(0.000000,100.000000) scale(0.100000,-0.100000)"
fill="#000000" stroke="none">
<path d="M320 880 l0 -120 80 0 80 0 0 -100 0 -100 -180 0 -180 0 0 -130 0
-130 -60 0 -60 0 0 -120 0 -120 140 0 140 0 0 120 0 120 -60 0 -60 0 0 110 0
110 160 0 160 0 0 -110 0 -110 -60 0 -60 0 0 -120 0 -120 140 0 140 0 0 120 0
120 -60 0 -60 0 0 110 0 110 160 0 160 0 0 -110 0 -110 -60 0 -60 0 0 -120 0
-120 140 0 140 0 0 120 0 120 -60 0 -60 0 0 130 0 130 -180 0 -180 0 0 100 0
100 80 0 80 0 0 120 0 120 -180 0 -180 0 0 -120z m320 0 l0 -80 -140 0 -140 0
0 80 0 80 140 0 140 0 0 -80z m-400 -700 l0 -80 -100 0 -100 0 0 80 0 80 100
0 100 0 0 -80z m360 0 l0 -80 -100 0 -100 0 0 80 0 80 100 0 100 0 0 -80z
m360 0 l0 -80 -100 0 -100 0 0 80 0 80 100 0 100 0 0 -80z"/>
</g>
</svg>
